/* XPM */
static char *d38932db50de45f5f04ec4312f763233vF0c7qQMFQo2QYv2[] = {
/* columns rows colors chars-per-pixel */
"32 32 22 1 ",
"  c None",
". c black",
"X c yellow",
"o c #7878A0",
"O c blue",
"+ c #808080",
"@ c #909090",
"# c #A0A0A0",
"$ c gray69",
"% c #E5A282",
"& c #FFB691",
"* c #E0A8A8",
"= c #FFD3AF",
"- c #9090C0",
"; c #A8A8E0",
": c #C0C0C0",
"> c #D0D0D0",
", c #FFFFC0",
"< c #C0C0FF",
"1 c gray88",
"2 c gray94",
"3 c white",
/* pixels */
"          .........             ",
"         .,<-$$$<,<..     332   ",
"    33  .<Xo$=&$-X<;-.   33332  ",
"  33333 .ooXO&O&o-Xoo. 222  32  ",
" 233 322 ...===&$o...1112   32  ",
" 22   222>:.&=&$+.::>11    222  ",
" 12    >>:::.=%++.:>>>     21   ",
"  11       .1@@1>:.       11    ",
"  11.    ..2=&&11>:..    .11    ",
"  ..=....32====&%>>32....=..    ",
" .==&@3223>*=&*=&>>3>232>&==.   ",
"  .&&+3>>3>&&%%&$:>11>31+&&.    ",
"  .++>1:>1>$#@$@@::>1>3>@+1.    ",
"  .@+1>:1>$#@@:$@#:::>1>@+>.    ",
"  .>@>>:>:#:@$:#$#@$::1>@@.     ",
"  .>@>>::$#:@::@$$#@$:>:@>.     ",
"   .>::::@$:@::@#$$@@$::>.11    ",
"    ....@@::@$:#@$:$@@@@.1111   ",
"        .@:$@#:$@$:$@@..   333  ",
"         .:$@#:$@#::$.      333 ",
"  32211  .:$#@::@#$:#$.      32 ",
" 33222>:1.:$$@::#@$:#$.  122222 ",
"33    :21.:$$@$:#@#:$#$.111122  ",
"33   222.:$$$@$:$#@::#$$.1      ",
"332 22  .:#$$@#::#@$:$@$$.      ",
" 2222  .:$@$$@#$:$@#:$#@$$.     ",
"  22   .:$@#$+@$::#@$:$#@$$..   ",
"      .:$#@#$+@#::$@#::$#@#$$.. ",
"     .:$$#+@#+@#$::@#$::$#@@@@..",
"    .:$##@+@#++@##:+@##@@@....  ",
"     ....+++++++++++++++.....   ",
"         ..................     "
};
