/* XPM */
static char *_982eb4ca6524123e97cf856730a0e0etgnBCYlJgnHqqBei[] = {
/* columns rows colors chars-per-pixel */
"32 32 9 1 ",
"  c None",
". c black",
"X c #68541F",
"o c #807020",
"O c #AA8834",
"+ c #C0A040",
"@ c #F2C44D",
"# c #F8E060",
"$ c #FCFC99",
/* pixels */
"                                ",
"                                ",
"                                ",
"                                ",
"                                ",
"                                ",
"                                ",
"                                ",
"                                ",
"                                ",
"                                ",
"            #$$##@              ",
"          @@#$$##@@+            ",
"         +@@#$$##@@+@           ",
"        @+@@#$$##@@+@+          ",
"        @+@@      @+@+          ",
"        @+@        +@+.         ",
"        @X          X+.         ",
"        +XoX      +OX+..        ",
"        +XoXo+@##@+OX...        ",
"        .XoXo+@##@+OX...        ",
"        ..oXo+@##@+O....        ",
"        ...Xo+@##@.....         ",
"         .............          ",
"           .........            ",
"                                ",
"                                ",
"                                ",
"                                ",
"                                ",
"                                ",
"                                "
};
