/* XPM */
static char *daa7621b14274498a77cf4e48a340c27YPUs8eY25qS0dTGK[] = {
/* columns rows colors chars-per-pixel */
"32 32 219 2 ",
"   c None",
".  c #7A0977",
"X  c #82147C",
"o  c #84237A",
"O  c #901685",
"+  c #AC1C8E",
"@  c #852282",
"#  c #8A2989",
"$  c #942C8B",
"%  c #8D338C",
"&  c #8C3B8F",
"*  c #9E2390",
"=  c #8E3B91",
"-  c #9B3293",
";  c #933B94",
":  c #983489",
">  c #A1208E",
",  c #A02B92",
"<  c #AA2A93",
"1  c #B62A96",
"2  c #B13398",
"3  c #BA3B9B",
"4  c #A5399A",
"5  c #D8108D",
"6  c #DC1C94",
"7  c #D21792",
"8  c #C70D8A",
"9  c #EB1792",
"0  c #F71291",
"q  c #CB2D9C",
"w  c #CA2799",
"e  c #D4299A",
"r  c #CB339D",
"t  c #C33B9D",
"y  c #D5339E",
"u  c #DC339D",
"i  c #E42499",
"p  c #E42899",
"a  c #E3339E",
"s  c #CB3CA2",
"d  c #C73BA0",
"f  c #D13CA1",
"g  c #DC3DA3",
"h  c #D934A1",
"j  c #E33AA2",
"k  c #E834A1",
"l  c #F432A2",
"z  c #FD35A3",
"x  c #F53BA5",
"c  c #FF3BA6",
"v  c #FF3CAA",
"b  c #FF36A9",
"n  c #8E4797",
"m  c #944A99",
"M  c #9A4B9D",
"N  c #964297",
"B  c #95529E",
"V  c #AE499E",
"C  c #9B4FA1",
"Z  c #9C5DA6",
"A  c #B848A3",
"S  c #A459A5",
"D  c #B857A9",
"F  c #A462A9",
"G  c #AF65AE",
"H  c #B362AF",
"J  c #AF6CB1",
"K  c #B36CB2",
"L  c #BE64B1",
"P  c #B875B7",
"I  c #B878B8",
"U  c #C443A2",
"Y  c #C44CA6",
"T  c #CC4AA7",
"R  c #CB4BA9",
"E  c #CD44A5",
"W  c #D342A5",
"Q  c #D24BA9",
"!  c #DB4AAA",
"~  c #C553AA",
"^  c #CC54AB",
"/  c #C55BAC",
"(  c #CA59AE",
")  c #D453AC",
"_  c #DA55AE",
"`  c #C85FB2",
"'  c #D65CB5",
"]  c #E341A7",
"[  c #EA41A5",
"{  c #E648AA",
"}  c #FE43AD",
"|  c #FF49AF",
" . c #F647AB",
".. c #E553AF",
"X. c #FF4CB1",
"o. c #FE4DBB",
"O. c #E558B3",
"+. c #FF53B4",
"@. c #FF5AB6",
"#. c #FF5CB9",
"$. c #F454B5",
"%. c #CC64B4",
"&. c #CA6BB6",
"*. c #CD6CB9",
"=. c #C466B6",
"-. c #DB64B7",
";. c #D36AB6",
":. c #D767BA",
">. c #CA74BB",
",. c #C57CBD",
"<. c #C87ABB",
"1. c #D274BD",
"2. c #D875BE",
"3. c #EC62BA",
"4. c #E36DBC",
"5. c #FF63BC",
"6. c #FF6BBD",
"7. c #F56EBE",
"8. c #E771BE",
"9. c #FF74BF",
"0. c #D04CCD",
"q. c #CC4CD4",
"w. c #FF5AC4",
"e. c #F957D8",
"r. c #EB5ADB",
"t. c #DC7BC3",
"y. c #D37FC2",
"u. c #E965C5",
"i. c #FF64C4",
"p. c #FD6CC1",
"a. c #FA62CA",
"s. c #E779C5",
"d. c #FF74C2",
"f. c #FF7CC5",
"g. c #FF7CCB",
"h. c #F176C5",
"j. c #FF64DC",
"k. c #FE79D5",
"l. c #FC72D8",
"z. c #E374D6",
"x. c #F55BE0",
"c. c #FF6EE3",
"v. c #FC69E9",
"b. c #FE77EA",
"n. c #FF74F1",
"m. c #FF7DF4",
"M. c #FF78FC",
"N. c #BE82BE",
"B. c #C881BF",
"V. c #CC84C1",
"C. c #CB8BC3",
"Z. c #C489C5",
"A. c #D184C4",
"S. c #D887C7",
"D. c #CD93C6",
"F. c #D395C9",
"G. c #DC95CB",
"H. c #D598CA",
"J. c #E28CCB",
"K. c #E786C8",
"L. c #FF82C5",
"P. c #FE82CA",
"I. c #FF8FCC",
"U. c #F688C9",
"Y. c #EE90CB",
"T. c #E793CE",
"R. c #FF95C6",
"E. c #FE93CC",
"W. c #FF9DCB",
"Q. c #FF99C7",
"!. c #FD8AD4",
"~. c #E395D1",
"^. c #E59CD5",
"/. c #EA99D9",
"(. c #FF9CD0",
"). c #ED8DDA",
"_. c #DCA1CF",
"`. c #FEA3CC",
"'. c #E4A4D4",
"]. c #E9A3D5",
"[. c #E2AAD6",
"{. c #EDA6DA",
"}. c #FEA1D4",
"|. c #FFADD3",
" X c #FFAFDA",
".X c #F7A6D7",
"XX c #EDB4DE",
"oX c #FEB5DD",
"OX c #FCBADD",
"+X c #F5B3DB",
"@X c #FF8AE3",
"#X c #FF83EA",
"$X c #FF9FEB",
"%X c #FF8BFF",
"&X c #FF86FC",
"*X c #FF95FF",
"=X c #FF99F8",
"-X c #FAB6E4",
";X c #FFA3FF",
":X c #FFA8F4",
">X c #FFB4FF",
",X c #FFBEFD",
"<X c #FFBCF0",
"1X c #FDA7E6",
"2X c #F4C3E4",
"3X c #FFC5EC",
"4X c #F7CAE9",
"5X c #F9C9E5",
"6X c #F6D4EC",
"7X c #F9D4EC",
"8X c #F9D9EF",
"9X c #F6D8ED",
"0X c #FCDBF2",
"qX c #FFD4FD",
"wX c #FFE7ED",
"eX c #FEEBFA",
"rX c #FFE5F8",
"tX c #FFF2FA",
"yX c #FFFEFE",
/* pixels */
"                                                                ",
"                            l z 0 9                             ",
"                    z z z z l a 9 9 i a a h                     ",
"                v v c } } X.$...u e e e u j a i                 ",
"              X.| | } } X.X. ._ s h h y f q e i i               ",
"          g.@X!.5.+.| | X. .{ ..f d s f f r w w 9 5 8           ",
"          d.d.P.P.P.6.| X.$...O._ Q T R T E s d w 6 7           ",
"        i.p.g.g.d.d.9.5.@.5.3.4.-.' ` %.^ R U d s E g y         ",
"      p.d.P.f.d.6.f.9.6.i.7.s.s.' -.:.%.( Y t U U E W ] y       ",
"      5.p.L.P.d.6.f.L.6.p.h.s.S.J.t.y.*.*.~ A Y Y ~ ) ! j       ",
"    i.#.#.9.9.5.5.d.}.P.P.U.s.~.^.~.G.S.y.%.%./ ` / ^ Q g [     ",
"    5.5.5.5.@.@.@.d.E.:X}.Y.Y.].{.].].^.G.A.>.*.%.~ R W g j     ",
"    #.i.6.#.+.#.6.f.E.,X X{.4X+X2XXX-XXX{.~.A.>.` ( -.u.O.]     ",
"    +.i.p.5.#.6.f.I.W.<X-X-X9X7X7X4X6X<X-X{.G.1.;.s.%X%XM.$.    ",
"  +.#.#.5.p.d.L.R.E.}.oX5X5X0XeXeXeX9XrX3X-X1X$X=X;X#X:.) { x   ",
"  v X.5.5.6.d.L.R.Q.|. X5X8XyXyXyXtXyXrXqXqXqX>X).1.( U r k v   ",
"  v X.+.X.| @.f.Q.`.|.+X8XtXyXyXyXyXyXyXyXeX,X~.1.( T t r u z   ",
"  b | | } } 5.I.`.|.|.OX5XwXtXyXyXyXyX0X2X2X'.A.&./ U U f u z   ",
"  } } | +.5.f.Y.Y.Q.`.|.+X6X0XeXyXyX6XXX'.G.F.y.<.&.~ ^ ) ..}   ",
"    +.X.@.#.9.8.2.R.`.G.G.'.2X6X9X4XXX'._.C.Z.<.>.&.:.p.i.a.    ",
"    v b  . .3.8.2.Y.`.B.V.F.'.'.[.[.[.H.D._.A.y.t.h.k.b.c.c.    ",
"    c b x  .O.4.2.8.:XB.I y.C.C.D.D.D.D.'./.S.S.s.k.#Xm.b.j.    ",
"      v x [ _ ^ ;.!.>XA.I Z.I I P I J D.^.V.>.=.;.l.c.w.$.{     ",
"      v x j y U / @X;X/.G K F F F F F I Z.P K L *.u.' Y d       ",
"        x h q 3 D g.*X=XK M N n m B Z Z S K H H D A A s         ",
"          g q Y 3.k.*X*XK M = & n B C n C S S V 4 2 1           ",
"          r ! w.v.M.&X&X=.; : = n m m m C C N - - 1 w           ",
"            o.e.j.v.n.n.z.M % = & & = = N C ; $ > +             ",
"                e.x.v.v.b.A $ @ o @ @ # ; ; - *                 ",
"                  q.q.r.c.V o . . @ O $ - , 1                   ",
"                        V : X . . O < 2                         ",
"                                                                "
};
