/* XPM */
static char *_45f14b8eaca4b29e3d5f0d200879051EhzJ1lCDNsi1k99t[] = {
/* columns rows colors chars-per-pixel */
"32 32 21 1 ",
"  c None",
". c black",
"X c yellow",
"o c #7A7AA2",
"O c blue",
"+ c gray51",
"@ c #929292",
"# c #A2A2A2",
"$ c #B2B2B2",
"% c #FCB591",
"& c #E2AAAA",
"* c #FFD5B1",
"= c #9292C2",
"- c #AAAAE2",
"; c gray76",
": c #D2D2D2",
"> c #FFFFC2",
", c #C2C2FF",
"< c #E2E2E2",
"1 c gray94",
"2 c white",
/* pixels */
"             .........          ",
"   122     ..,>,$$$=,>.         ",
"  12222   .=-,X=$%*$oX,.  22    ",
"  12  111 .ooX=o%O%OXoo. 22222  ",
"  12   1<<<...o$%***... 112 221 ",
"  111    <<:;;.+$%*%.;:111   11 ",
"   <1     :::;.++%*.;;;::    1< ",
"    <<       .;:<@@<.       <<  ",
"    <<.    ..;:<<%%*1..    .<<  ",
"    ..*....12::%%****12....*..  ",
"   .**%:121:2::%*&%*&:2112@%**. ",
"    .%%+<2:<<:;$%%%%%:2::2+%%.  ",
"    .<+@:2:<:;;@@$@#$:<:;<:++.  ",
"    .:+@:<:;;;#@$;@@#$:<;:<+@.  ",
"     .@@:<;;$@#$#;$@;#;:;::@:.  ",
"     .:@;:;$@#$$@;;@;#$;;::@:.  ",
"    <<.:;;$@@$$#@;;@;$@;;;;:.   ",
"   <<<<.@@@@$;$@#;$@;;@@....    ",
"  222   ..@@$;$@$;#@$;@.        ",
" 222      .$;;#@$;#@$;.         ",
" 12      .$#;$#@;;@#$;.  <<112  ",
" 11111<  .$#;$@#;;@$$;.<;:11122 ",
"  11<<<<.$#$;#@#;$@$$;.<1;    22",
"      <.$$#;;@#$;$@$$$;.111   22",
"      .$$@$;$@#;;#@$$#;.  11 122",
"     .$$@#$;#@$;$#@$$@$;.  1111 ",
"   ..$$@#$;$@#;;$@+$#@$;.   11  ",
" ..$$#@#$;;#@$;;#@+$#@#$;.      ",
"..@@@@#$;;$#@;;$#@+#@+#$$;.     ",
"  ....@@@##@+;##@++#@+@##$;.    ",
"   .....+++++++++++++++....     ",
"     ..................         "
};
